<svg width="209" height="212" viewBox="0 0 209 212" fill="none" xmlns="http://www.w3.org/2000/svg">
<g filter="url(#filter0_d_15_69)">
<path fill-rule="evenodd" clip-rule="evenodd" d="M149.182 194.409C172.435 183.543 190.737 164.31 200.436 140.546C197.504 135.031 189.494 125.716 180.914 132.578C173.219 151.429 158.701 166.686 140.255 175.305C121.809 183.925 100.791 185.274 81.3945 179.082C61.9981 172.89 45.6488 159.614 35.6084 141.901C25.5681 124.188 22.5746 103.34 27.2253 83.5183C31.876 63.6958 43.829 46.3553 60.6996 34.9561C77.5703 23.5569 98.1183 18.9371 118.244 22.0182C134.877 24.5645 150.212 32.2158 162.195 43.7835C166.385 47.8275 172.975 48.6377 177.529 45.0093C182.083 41.3808 182.869 34.7023 178.791 30.5469C163.415 14.883 143.317 4.52476 121.435 1.17496C96.0643 -2.70908 70.1614 3.11471 48.8943 17.4845C27.6272 31.8543 12.5594 53.7137 6.69673 78.7019C0.834051 103.69 4.60756 129.97 17.2644 152.299C29.9213 174.628 50.5311 191.364 74.9823 199.169C99.4335 206.975 125.928 205.275 149.182 194.409Z" fill="url(#paint0_linear_15_69)"/>
</g>
<g filter="url(#filter1_d_15_69)">
<path d="M80.5682 114.318C78.8182 114.318 77.2614 114.034 75.8977 113.466C74.5417 112.89 73.4773 112.106 72.7045 111.114C71.9318 110.121 71.5455 108.996 71.5455 107.739C71.5455 106.769 71.7652 105.879 72.2045 105.068C72.6515 104.25 73.2576 103.572 74.0227 103.034C74.7879 102.489 75.6439 102.14 76.5909 101.989V101.83C75.3485 101.58 74.3409 100.977 73.5682 100.023C72.7955 99.0606 72.4091 97.9432 72.4091 96.6705C72.4091 95.4659 72.7614 94.3939 73.4659 93.4545C74.1705 92.5076 75.1364 91.7652 76.3636 91.2273C77.5985 90.6818 79 90.4091 80.5682 90.4091C82.1364 90.4091 83.5341 90.6818 84.7614 91.2273C85.9962 91.7727 86.9659 92.5189 87.6705 93.4659C88.375 94.4053 88.7311 95.4735 88.7386 96.6705C88.7311 97.9508 88.3371 99.0682 87.5568 100.023C86.7765 100.977 85.7765 101.58 84.5568 101.83V101.989C85.4886 102.14 86.3333 102.489 87.0909 103.034C87.8561 103.572 88.4621 104.25 88.9091 105.068C89.3636 105.879 89.5947 106.769 89.6023 107.739C89.5947 108.996 89.2045 110.121 88.4318 111.114C87.6591 112.106 86.5909 112.89 85.2273 113.466C83.8712 114.034 82.3182 114.318 80.5682 114.318ZM80.5682 110.705C81.3485 110.705 82.0303 110.564 82.6136 110.284C83.197 109.996 83.6515 109.602 83.9773 109.102C84.3106 108.595 84.4773 108.011 84.4773 107.352C84.4773 106.678 84.3068 106.083 83.9659 105.568C83.625 105.045 83.1629 104.636 82.5795 104.341C81.9962 104.038 81.3258 103.886 80.5682 103.886C79.8182 103.886 79.1477 104.038 78.5568 104.341C77.9659 104.636 77.5 105.045 77.1591 105.568C76.8258 106.083 76.6591 106.678 76.6591 107.352C76.6591 108.011 76.822 108.595 77.1477 109.102C77.4735 109.602 77.9318 109.996 78.5227 110.284C79.1136 110.564 79.7955 110.705 80.5682 110.705ZM80.5682 100.307C81.2197 100.307 81.7992 100.174 82.3068 99.9091C82.8144 99.6439 83.2121 99.2765 83.5 98.8068C83.7879 98.3371 83.9318 97.7955 83.9318 97.1818C83.9318 96.5758 83.7879 96.0455 83.5 95.5909C83.2121 95.1288 82.8182 94.7689 82.3182 94.5114C81.8182 94.2462 81.2348 94.1136 80.5682 94.1136C79.9091 94.1136 79.3258 94.2462 78.8182 94.5114C78.3106 94.7689 77.9129 95.1288 77.625 95.5909C77.3447 96.0455 77.2045 96.5758 77.2045 97.1818C77.2045 97.7955 77.3485 98.3371 77.6364 98.8068C77.9242 99.2765 78.322 99.6439 78.8295 99.9091C79.3371 100.174 79.9167 100.307 80.5682 100.307ZM102.168 114.511C100.213 114.504 98.5313 114.023 97.1222 113.068C95.7206 112.114 94.6411 110.731 93.8835 108.92C93.1335 107.11 92.7623 104.932 92.7699 102.386C92.7699 99.8485 93.1449 97.6856 93.8949 95.8977C94.6525 94.1098 95.732 92.75 97.1335 91.8182C98.5426 90.8788 100.221 90.4091 102.168 90.4091C104.115 90.4091 105.789 90.8788 107.19 91.8182C108.599 92.7576 109.683 94.1212 110.44 95.9091C111.198 97.6894 111.573 99.8485 111.565 102.386C111.565 104.939 111.187 107.121 110.429 108.932C109.679 110.742 108.603 112.125 107.202 113.08C105.8 114.034 104.122 114.511 102.168 114.511ZM102.168 110.432C103.501 110.432 104.565 109.761 105.361 108.42C106.156 107.08 106.55 105.068 106.543 102.386C106.543 100.621 106.361 99.1515 105.997 97.9773C105.641 96.803 105.134 95.9205 104.474 95.3295C103.823 94.7386 103.054 94.4432 102.168 94.4432C100.842 94.4432 99.7813 95.1061 98.9858 96.4318C98.1903 97.7576 97.7888 99.7424 97.7812 102.386C97.7812 104.174 97.9593 105.667 98.3153 106.864C98.679 108.053 99.1903 108.947 99.8494 109.545C100.509 110.136 101.281 110.432 102.168 110.432ZM127.812 109.636V108.409C127.812 107.477 128.009 106.621 128.403 105.841C128.805 105.053 129.384 104.424 130.142 103.955C130.907 103.477 131.839 103.239 132.938 103.239C134.051 103.239 134.987 103.473 135.744 103.943C136.509 104.413 137.085 105.042 137.472 105.83C137.866 106.61 138.062 107.47 138.062 108.409V109.636C138.062 110.568 137.866 111.428 137.472 112.216C137.078 112.996 136.498 113.621 135.733 114.091C134.968 114.568 134.036 114.807 132.938 114.807C131.824 114.807 130.888 114.568 130.131 114.091C129.373 113.621 128.797 112.996 128.403 112.216C128.009 111.428 127.812 110.568 127.812 109.636ZM131.119 108.409V109.636C131.119 110.174 131.248 110.682 131.506 111.159C131.771 111.636 132.248 111.875 132.938 111.875C133.627 111.875 134.097 111.64 134.347 111.17C134.604 110.701 134.733 110.189 134.733 109.636V108.409C134.733 107.856 134.612 107.341 134.369 106.864C134.127 106.386 133.65 106.148 132.938 106.148C132.256 106.148 131.782 106.386 131.517 106.864C131.252 107.341 131.119 107.856 131.119 108.409ZM115.869 96.3182V95.0909C115.869 94.1515 116.07 93.2917 116.472 92.5114C116.873 91.7235 117.453 91.0947 118.21 90.625C118.975 90.1553 119.9 89.9205 120.983 89.9205C122.104 89.9205 123.044 90.1553 123.801 90.625C124.559 91.0947 125.134 91.7235 125.528 92.5114C125.922 93.2917 126.119 94.1515 126.119 95.0909V96.3182C126.119 97.2576 125.919 98.1174 125.517 98.8977C125.123 99.678 124.544 100.303 123.778 100.773C123.021 101.235 122.089 101.466 120.983 101.466C119.877 101.466 118.941 101.231 118.176 100.761C117.419 100.284 116.843 99.6591 116.449 98.8864C116.063 98.1061 115.869 97.25 115.869 96.3182ZM119.199 95.0909V96.3182C119.199 96.8712 119.328 97.3826 119.585 97.8523C119.85 98.322 120.316 98.5568 120.983 98.5568C121.68 98.5568 122.153 98.322 122.403 97.8523C122.661 97.3826 122.79 96.8712 122.79 96.3182V95.0909C122.79 94.5379 122.669 94.0227 122.426 93.5455C122.184 93.0682 121.703 92.8295 120.983 92.8295C120.309 92.8295 119.843 93.072 119.585 93.5568C119.328 94.0417 119.199 94.553 119.199 95.0909ZM117.369 114L133.369 90.7273H136.347L120.347 114H117.369Z" fill="white"/>
</g>
<defs>
<filter id="filter0_d_15_69" x="0" y="0" width="208.964" height="212.001" filterUnits="userSpaceOnUse" color-interpolation-filters="sRGB">
<feFlood flood-opacity="0" result="BackgroundImageFix"/>
<feColorMatrix in="SourceAlpha" type="matrix" values="0 0 0 0 0 0 0 0 0 0 0 0 0 0 0 0 0 0 127 0" result="hardAlpha"/>
<feOffset dy="4"/>
<feGaussianBlur stdDeviation="2"/>
<feComposite in2="hardAlpha" operator="out"/>
<feColorMatrix type="matrix" values="0 0 0 0 0 0 0 0 0 0 0 0 0 0 0 0 0 0 0.25 0"/>
<feBlend mode="normal" in2="BackgroundImageFix" result="effect1_dropShadow_15_69"/>
<feBlend mode="normal" in="SourceGraphic" in2="effect1_dropShadow_15_69" result="shape"/>
</filter>
<filter id="filter1_d_15_69" x="67.5455" y="89.9205" width="74.517" height="32.8864" filterUnits="userSpaceOnUse" color-interpolation-filters="sRGB">
<feFlood flood-opacity="0" result="BackgroundImageFix"/>
<feColorMatrix in="SourceAlpha" type="matrix" values="0 0 0 0 0 0 0 0 0 0 0 0 0 0 0 0 0 0 127 0" result="hardAlpha"/>
<feOffset dy="4"/>
<feGaussianBlur stdDeviation="2"/>
<feComposite in2="hardAlpha" operator="out"/>
<feColorMatrix type="matrix" values="0 0 0 0 0 0 0 0 0 0 0 0 0 0 0 0 0 0 0.25 0"/>
<feBlend mode="normal" in2="BackgroundImageFix" result="effect1_dropShadow_15_69"/>
<feBlend mode="normal" in="SourceGraphic" in2="effect1_dropShadow_15_69" result="shape"/>
</filter>
<linearGradient id="paint0_linear_15_69" x1="-8.43457" y1="91.2148" x2="232.124" y2="92.0983" gradientUnits="userSpaceOnUse">
<stop stop-color="#AA9736"/>
<stop offset="1" stop-color="#3A2FBD"/>
</linearGradient>
</defs>
</svg>
