<svg width="212" height="212" viewBox="0 0 212 212" fill="none" xmlns="http://www.w3.org/2000/svg">
<g filter="url(#filter0_d_15_36)">
<path fill-rule="evenodd" clip-rule="evenodd" d="M74.9821 199.169C99.4333 206.975 125.928 205.275 149.182 194.409V179.082L140.255 175.305C121.809 183.925 100.791 185.274 81.3943 179.082C61.9979 172.89 45.6486 159.614 35.6082 141.901C25.5679 124.188 22.5744 103.34 27.2251 83.518C31.8758 63.6955 43.8288 46.355 60.6994 34.9558C77.5701 23.5566 98.1181 18.9368 118.244 22.0179C134.877 24.5642 150.212 32.2155 162.195 43.7832C166.385 47.8272 172.975 48.6374 177.529 45.009C182.083 41.3805 182.869 34.702 178.791 30.5466C163.415 14.8827 143.317 4.52445 121.435 1.17465C96.0641 -2.70939 70.1612 3.1144 48.8941 17.4842C27.627 31.854 12.5592 53.7134 6.69649 78.7016C0.833807 103.69 4.60732 129.97 17.2642 152.299C29.9211 174.628 50.5309 191.364 74.9821 199.169Z" fill="url(#paint0_linear_15_36)"/>
</g>
<g filter="url(#filter1_d_15_36)">
<path d="M80.8182 114.318C79.6212 114.311 78.4659 114.11 77.3523 113.716C76.2462 113.322 75.2538 112.682 74.375 111.795C73.4962 110.909 72.7992 109.735 72.2841 108.273C71.7765 106.811 71.5227 105.015 71.5227 102.886C71.5303 100.932 71.7538 99.1855 72.1932 97.6477C72.6402 96.1022 73.2765 94.7916 74.1023 93.7158C74.9356 92.6401 75.9318 91.8219 77.0909 91.2613C78.25 90.6931 79.5492 90.409 80.9886 90.409C82.5417 90.409 83.9129 90.7121 85.1023 91.3181C86.2917 91.9166 87.2462 92.731 87.9659 93.7613C88.6932 94.7916 89.1326 95.9469 89.2841 97.2272H84.4318C84.2424 96.4166 83.8447 95.7802 83.2386 95.3181C82.6326 94.856 81.8826 94.6249 80.9886 94.6249C79.4735 94.6249 78.322 95.284 77.5341 96.6022C76.7538 97.9204 76.3561 99.7121 76.3409 101.977H76.5C76.8485 101.288 77.3182 100.701 77.9091 100.216C78.5076 99.7234 79.1856 99.3484 79.9432 99.0908C80.7083 98.8257 81.5152 98.6931 82.3636 98.6931C83.7424 98.6931 84.9697 99.0189 86.0455 99.6704C87.1212 100.314 87.9697 101.201 88.5909 102.329C89.2121 103.458 89.5227 104.75 89.5227 106.204C89.5227 107.78 89.1553 109.182 88.4205 110.409C87.6932 111.636 86.6742 112.598 85.3636 113.295C84.0606 113.985 82.5455 114.326 80.8182 114.318ZM80.7955 110.454C81.553 110.454 82.2311 110.273 82.8295 109.909C83.428 109.545 83.8977 109.053 84.2386 108.432C84.5795 107.811 84.75 107.114 84.75 106.341C84.75 105.568 84.5795 104.875 84.2386 104.261C83.9053 103.648 83.4432 103.159 82.8523 102.795C82.2614 102.432 81.5871 102.25 80.8295 102.25C80.2614 102.25 79.7348 102.356 79.25 102.568C78.7727 102.78 78.3523 103.076 77.9886 103.454C77.6326 103.833 77.3523 104.273 77.1477 104.773C76.9432 105.265 76.8409 105.792 76.8409 106.352C76.8409 107.102 77.0114 107.788 77.3523 108.409C77.7008 109.03 78.1705 109.526 78.7614 109.898C79.3598 110.269 80.0379 110.454 80.7955 110.454ZM102.136 114.511C100.182 114.504 98.5 114.023 97.0909 113.068C95.6894 112.114 94.6098 110.731 93.8523 108.92C93.1023 107.11 92.7311 104.932 92.7386 102.386C92.7386 99.8484 93.1136 97.6855 93.8636 95.8977C94.6212 94.1098 95.7008 92.7499 97.1023 91.8181C98.5114 90.8787 100.189 90.409 102.136 90.409C104.083 90.409 105.758 90.8787 107.159 91.8181C108.568 92.7575 109.652 94.1212 110.409 95.909C111.167 97.6893 111.542 99.8484 111.534 102.386C111.534 104.939 111.155 107.121 110.398 108.932C109.648 110.742 108.572 112.125 107.17 113.079C105.769 114.034 104.091 114.511 102.136 114.511ZM102.136 110.432C103.47 110.432 104.534 109.761 105.33 108.42C106.125 107.079 106.519 105.068 106.511 102.386C106.511 100.621 106.33 99.1515 105.966 97.9772C105.61 96.803 105.102 95.9204 104.443 95.3295C103.792 94.7386 103.023 94.4431 102.136 94.4431C100.811 94.4431 99.75 95.106 98.9545 96.4318C98.1591 97.7575 97.7576 99.7424 97.75 102.386C97.75 104.174 97.928 105.667 98.2841 106.864C98.6477 108.053 99.1591 108.947 99.8182 109.545C100.477 110.136 101.25 110.432 102.136 110.432ZM127.781 109.636V108.409C127.781 107.477 127.978 106.621 128.372 105.841C128.774 105.053 129.353 104.424 130.111 103.954C130.876 103.477 131.808 103.239 132.906 103.239C134.02 103.239 134.955 103.473 135.713 103.943C136.478 104.413 137.054 105.042 137.44 105.829C137.834 106.61 138.031 107.47 138.031 108.409V109.636C138.031 110.568 137.834 111.428 137.44 112.216C137.046 112.996 136.467 113.621 135.702 114.091C134.937 114.568 134.005 114.807 132.906 114.807C131.793 114.807 130.857 114.568 130.099 114.091C129.342 113.621 128.766 112.996 128.372 112.216C127.978 111.428 127.781 110.568 127.781 109.636ZM131.088 108.409V109.636C131.088 110.174 131.217 110.682 131.474 111.159C131.74 111.636 132.217 111.875 132.906 111.875C133.596 111.875 134.065 111.64 134.315 111.17C134.573 110.701 134.702 110.189 134.702 109.636V108.409C134.702 107.856 134.58 107.341 134.338 106.864C134.096 106.386 133.618 106.148 132.906 106.148C132.224 106.148 131.751 106.386 131.486 106.864C131.221 107.341 131.088 107.856 131.088 108.409ZM115.838 96.3181V95.0908C115.838 94.1515 116.039 93.2916 116.44 92.5113C116.842 91.7234 117.421 91.0946 118.179 90.6249C118.944 90.1552 119.868 89.9204 120.952 89.9204C122.073 89.9204 123.012 90.1552 123.77 90.6249C124.527 91.0946 125.103 91.7234 125.497 92.5113C125.891 93.2916 126.088 94.1515 126.088 95.0908V96.3181C126.088 97.2575 125.887 98.1174 125.486 98.8977C125.092 99.678 124.512 100.303 123.747 100.773C122.99 101.235 122.058 101.466 120.952 101.466C119.846 101.466 118.91 101.231 118.145 100.761C117.387 100.284 116.812 99.659 116.418 98.8863C116.031 98.106 115.838 97.2499 115.838 96.3181ZM119.168 95.0908V96.3181C119.168 96.8712 119.296 97.3825 119.554 97.8522C119.819 98.3219 120.285 98.5568 120.952 98.5568C121.649 98.5568 122.122 98.3219 122.372 97.8522C122.63 97.3825 122.759 96.8712 122.759 96.3181V95.0908C122.759 94.5378 122.637 94.0227 122.395 93.5454C122.152 93.0681 121.671 92.8295 120.952 92.8295C120.277 92.8295 119.812 93.0719 119.554 93.5568C119.296 94.0416 119.168 94.553 119.168 95.0908ZM117.338 114L133.338 90.7272H136.315L120.315 114H117.338Z" fill="white"/>
</g>
<defs>
<filter id="filter0_d_15_36" x="-0.000244141" y="-0.000305176" width="212" height="212.001" filterUnits="userSpaceOnUse" color-interpolation-filters="sRGB">
<feFlood flood-opacity="0" result="BackgroundImageFix"/>
<feColorMatrix in="SourceAlpha" type="matrix" values="0 0 0 0 0 0 0 0 0 0 0 0 0 0 0 0 0 0 127 0" result="hardAlpha"/>
<feOffset dy="4"/>
<feGaussianBlur stdDeviation="2"/>
<feComposite in2="hardAlpha" operator="out"/>
<feColorMatrix type="matrix" values="0 0 0 0 0 0 0 0 0 0 0 0 0 0 0 0 0 0 0.25 0"/>
<feBlend mode="normal" in2="BackgroundImageFix" result="effect1_dropShadow_15_36"/>
<feBlend mode="normal" in="SourceGraphic" in2="effect1_dropShadow_15_36" result="shape"/>
</filter>
<filter id="filter1_d_15_36" x="67.5227" y="89.9204" width="74.5085" height="32.8864" filterUnits="userSpaceOnUse" color-interpolation-filters="sRGB">
<feFlood flood-opacity="0" result="BackgroundImageFix"/>
<feColorMatrix in="SourceAlpha" type="matrix" values="0 0 0 0 0 0 0 0 0 0 0 0 0 0 0 0 0 0 127 0" result="hardAlpha"/>
<feOffset dy="4"/>
<feGaussianBlur stdDeviation="2"/>
<feComposite in2="hardAlpha" operator="out"/>
<feColorMatrix type="matrix" values="0 0 0 0 0 0 0 0 0 0 0 0 0 0 0 0 0 0 0.25 0"/>
<feBlend mode="normal" in2="BackgroundImageFix" result="effect1_dropShadow_15_36"/>
<feBlend mode="normal" in="SourceGraphic" in2="effect1_dropShadow_15_36" result="shape"/>
</filter>
<linearGradient id="paint0_linear_15_36" x1="-8.43481" y1="91.2145" x2="232.124" y2="92.098" gradientUnits="userSpaceOnUse">
<stop stop-color="#AA9736"/>
<stop offset="1" stop-color="#3A2FBD"/>
</linearGradient>
</defs>
</svg>
