<svg width="204" height="204" viewBox="0 0 204 204" fill="none" xmlns="http://www.w3.org/2000/svg">
<g clip-path="url(#clip0_15_59)">
<path d="M187.639 69.9021C193.092 67.8586 199.226 70.6143 200.696 76.2484C206.238 97.4863 204.802 120.051 196.436 140.546C186.737 164.31 168.435 183.543 145.182 194.409C121.928 205.275 95.4333 206.975 70.9821 199.169C46.5309 191.364 25.9211 174.628 13.2642 152.299C0.60733 129.97 -3.16618 103.69 2.6965 78.7016C8.55918 53.7134 23.627 31.854 44.8941 17.4842C66.1612 3.1144 92.0641 -2.70939 117.435 1.17465C139.317 4.52445 159.415 14.8827 174.791 30.5466C178.869 34.702 178.083 41.3805 173.529 45.009C168.975 48.6374 162.385 47.8272 158.195 43.7832C146.212 32.2155 130.877 24.5642 114.244 22.0179C94.1181 18.9368 73.5701 23.5566 56.6994 34.9558C39.8288 46.355 27.8758 63.6955 23.2251 83.518C18.5744 103.34 21.5679 124.188 31.6082 141.901C41.6486 159.614 57.9979 172.89 77.3943 179.082C96.7908 185.274 117.809 183.925 136.255 175.305C154.701 166.686 169.219 151.429 176.914 132.578C183.273 116.999 184.584 99.9117 180.815 83.688C179.497 78.0164 182.187 71.9457 187.639 69.9021Z" fill="url(#paint0_linear_15_59)"/>
<g filter="url(#filter0_d_15_59)">
<path d="M76.3068 90.4091C77.5038 90.4091 78.6553 90.6098 79.7614 91.0114C80.875 91.4129 81.8674 92.053 82.7386 92.9318C83.6174 93.8106 84.3106 94.9773 84.8182 96.4318C85.3333 97.8788 85.5947 99.6553 85.6023 101.761C85.6023 103.739 85.3788 105.504 84.9318 107.057C84.4924 108.602 83.8598 109.917 83.0341 111C82.2083 112.083 81.2121 112.909 80.0455 113.477C78.8788 114.038 77.5758 114.318 76.1364 114.318C74.5833 114.318 73.2121 114.019 72.0227 113.42C70.8333 112.814 69.875 111.992 69.1477 110.955C68.428 109.909 67.9924 108.735 67.8409 107.432H72.6932C72.8826 108.28 73.2803 108.939 73.8864 109.409C74.4924 109.871 75.2424 110.102 76.1364 110.102C77.6515 110.102 78.803 109.443 79.5909 108.125C80.3788 106.799 80.7765 104.985 80.7841 102.682H80.625C80.2765 103.364 79.8068 103.951 79.2159 104.443C78.625 104.928 77.947 105.303 77.1818 105.568C76.4242 105.833 75.6174 105.966 74.7614 105.966C73.3902 105.966 72.1667 105.644 71.0909 105C70.0152 104.356 69.1667 103.47 68.5455 102.341C67.9242 101.212 67.6136 99.9242 67.6136 98.4773C67.6061 96.9167 67.9659 95.5265 68.6932 94.3068C69.4205 93.0871 70.4356 92.1326 71.7386 91.4432C73.0492 90.7462 74.572 90.4015 76.3068 90.4091ZM76.3409 94.2727C75.5758 94.2727 74.8939 94.4545 74.2955 94.8182C73.7045 95.1818 73.2348 95.6705 72.8864 96.2841C72.5455 96.8977 72.3788 97.5833 72.3864 98.3409C72.3864 99.1061 72.553 99.7955 72.8864 100.409C73.2273 101.015 73.6894 101.5 74.2727 101.864C74.8636 102.22 75.5379 102.398 76.2955 102.398C76.8636 102.398 77.3902 102.292 77.875 102.08C78.3598 101.867 78.7803 101.576 79.1364 101.205C79.5 100.826 79.7841 100.39 79.9886 99.8977C80.1932 99.4053 80.2955 98.8826 80.2955 98.3295C80.2879 97.5947 80.1136 96.9205 79.7727 96.3068C79.4318 95.6932 78.9621 95.2008 78.3636 94.8295C77.7652 94.4583 77.0909 94.2727 76.3409 94.2727ZM98.1364 114.511C96.1818 114.504 94.5 114.023 93.0909 113.068C91.6894 112.114 90.6098 110.731 89.8523 108.92C89.1023 107.11 88.7311 104.932 88.7386 102.386C88.7386 99.8485 89.1136 97.6856 89.8636 95.8977C90.6212 94.1098 91.7008 92.75 93.1023 91.8182C94.5114 90.8788 96.1894 90.4091 98.1364 90.4091C100.083 90.4091 101.758 90.8788 103.159 91.8182C104.568 92.7576 105.652 94.1212 106.409 95.9091C107.167 97.6894 107.542 99.8485 107.534 102.386C107.534 104.939 107.155 107.121 106.398 108.932C105.648 110.742 104.572 112.125 103.17 113.08C101.769 114.034 100.091 114.511 98.1364 114.511ZM98.1364 110.432C99.4697 110.432 100.534 109.761 101.33 108.42C102.125 107.08 102.519 105.068 102.511 102.386C102.511 100.621 102.33 99.1515 101.966 97.9773C101.61 96.803 101.102 95.9205 100.443 95.3295C99.7917 94.7386 99.0227 94.4432 98.1364 94.4432C96.8106 94.4432 95.75 95.1061 94.9545 96.4318C94.1591 97.7576 93.7576 99.7424 93.75 102.386C93.75 104.174 93.928 105.667 94.2841 106.864C94.6477 108.053 95.1591 108.947 95.8182 109.545C96.4773 110.136 97.25 110.432 98.1364 110.432ZM123.781 109.636V108.409C123.781 107.477 123.978 106.621 124.372 105.841C124.774 105.053 125.353 104.424 126.111 103.955C126.876 103.477 127.808 103.239 128.906 103.239C130.02 103.239 130.955 103.473 131.713 103.943C132.478 104.413 133.054 105.042 133.44 105.83C133.834 106.61 134.031 107.47 134.031 108.409V109.636C134.031 110.568 133.834 111.428 133.44 112.216C133.046 112.996 132.467 113.621 131.702 114.091C130.937 114.568 130.005 114.807 128.906 114.807C127.793 114.807 126.857 114.568 126.099 114.091C125.342 113.621 124.766 112.996 124.372 112.216C123.978 111.428 123.781 110.568 123.781 109.636ZM127.088 108.409V109.636C127.088 110.174 127.217 110.682 127.474 111.159C127.74 111.636 128.217 111.875 128.906 111.875C129.596 111.875 130.065 111.64 130.315 111.17C130.573 110.701 130.702 110.189 130.702 109.636V108.409C130.702 107.856 130.58 107.341 130.338 106.864C130.096 106.386 129.618 106.148 128.906 106.148C128.224 106.148 127.751 106.386 127.486 106.864C127.221 107.341 127.088 107.856 127.088 108.409ZM111.838 96.3182V95.0909C111.838 94.1515 112.039 93.2917 112.44 92.5114C112.842 91.7235 113.421 91.0947 114.179 90.625C114.944 90.1553 115.868 89.9205 116.952 89.9205C118.073 89.9205 119.012 90.1553 119.77 90.625C120.527 91.0947 121.103 91.7235 121.497 92.5114C121.891 93.2917 122.088 94.1515 122.088 95.0909V96.3182C122.088 97.2576 121.887 98.1174 121.486 98.8977C121.092 99.678 120.512 100.303 119.747 100.773C118.99 101.235 118.058 101.466 116.952 101.466C115.846 101.466 114.91 101.231 114.145 100.761C113.387 100.284 112.812 99.6591 112.418 98.8864C112.031 98.1061 111.838 97.25 111.838 96.3182ZM115.168 95.0909V96.3182C115.168 96.8712 115.296 97.3826 115.554 97.8523C115.819 98.322 116.285 98.5568 116.952 98.5568C117.649 98.5568 118.122 98.322 118.372 97.8523C118.63 97.3826 118.759 96.8712 118.759 96.3182V95.0909C118.759 94.5379 118.637 94.0227 118.395 93.5455C118.152 93.0682 117.671 92.8295 116.952 92.8295C116.277 92.8295 115.812 93.072 115.554 93.5568C115.296 94.0417 115.168 94.553 115.168 95.0909ZM113.338 114L129.338 90.7273H132.315L116.315 114H113.338Z" fill="white"/>
</g>
</g>
<defs>
<filter id="filter0_d_15_59" x="63.6023" y="89.9205" width="74.429" height="32.8864" filterUnits="userSpaceOnUse" color-interpolation-filters="sRGB">
<feFlood flood-opacity="0" result="BackgroundImageFix"/>
<feColorMatrix in="SourceAlpha" type="matrix" values="0 0 0 0 0 0 0 0 0 0 0 0 0 0 0 0 0 0 127 0" result="hardAlpha"/>
<feOffset dy="4"/>
<feGaussianBlur stdDeviation="2"/>
<feComposite in2="hardAlpha" operator="out"/>
<feColorMatrix type="matrix" values="0 0 0 0 0 0 0 0 0 0 0 0 0 0 0 0 0 0 0.25 0"/>
<feBlend mode="normal" in2="BackgroundImageFix" result="effect1_dropShadow_15_59"/>
<feBlend mode="normal" in="SourceGraphic" in2="effect1_dropShadow_15_59" result="shape"/>
</filter>
<linearGradient id="paint0_linear_15_59" x1="-12.4348" y1="91.2145" x2="228.124" y2="92.098" gradientUnits="userSpaceOnUse">
<stop stop-color="#AA9736"/>
<stop offset="1" stop-color="#4A2FBD"/>
</linearGradient>
<clipPath id="clip0_15_59">
<rect width="204" height="204" fill="white"/>
</clipPath>
</defs>
</svg>
